<svg width="379" height="118" viewBox="0 0 379 118" fill="none" xmlns="http://www.w3.org/2000/svg">
<path d="M25.6643 0.267578C31.7158 0.267578 36.9567 1.45626 41.3873 3.83362C45.8718 6.15694 49.3568 9.45282 51.8422 13.7213C54.3277 17.9897 55.5704 23.0146 55.5704 28.7959C55.5704 34.5231 54.3277 39.494 51.8422 43.7084C49.3568 47.9228 45.8718 51.1916 41.3873 53.515C36.9567 55.8383 31.7158 57 25.6643 57H4.51123V0.267578H25.6643ZM25.3401 47.8417C31.4456 47.8417 36.1463 46.1668 39.4422 42.8169C42.738 39.4129 44.386 34.7393 44.386 28.7959C44.386 22.7984 42.738 18.0707 39.4422 14.6128C36.1463 11.1548 31.4456 9.42581 25.3401 9.42581H15.4525V47.8417H25.3401Z" fill="white"/>
<path d="M80.0805 0.267578H91.0218V57H80.0805V0.267578Z" fill="white"/>
<path d="M144.227 9.42581H141.31L124.614 57H113.349L133.691 0.267578H151.765L172.107 57H160.842L144.227 9.42581ZM125.668 34.7933H158.735V43.9515H125.668V34.7933Z" fill="white"/>
<path d="M227.809 16.6389C227.809 14.2616 227.052 12.4785 225.54 11.2899C224.027 10.0472 221.892 9.42581 219.137 9.42581H205.278V23.771H219.056C221.811 23.771 223.946 23.1767 225.459 21.988C227.025 20.7453 227.809 18.9622 227.809 16.6389ZM194.337 57V0.267578H220.677C224.621 0.267578 227.944 0.942965 230.645 2.29374C233.347 3.59048 235.373 5.3735 236.724 7.64279C238.129 9.85806 238.831 12.3705 238.831 15.1801C238.831 17.6655 238.372 19.7727 237.453 21.5017C236.535 23.2307 235.265 24.6085 233.644 25.6351C232.077 26.6076 230.267 27.283 228.214 27.6612V28.3096C230.7 28.6338 232.834 29.3362 234.617 30.4168C236.4 31.4434 237.778 32.9022 238.75 34.7933C239.723 36.6844 240.209 38.9807 240.209 41.6822C240.209 44.6539 239.48 47.3014 238.021 49.6247C236.562 51.894 234.428 53.7041 231.618 55.0549C228.862 56.3516 225.54 57 221.649 57H194.337ZM205.278 47.8417H220.191C223.054 47.8417 225.269 47.2204 226.836 45.9777C228.457 44.6809 229.268 42.8169 229.268 40.3855C229.268 37.846 228.403 35.9279 226.674 34.6312C224.999 33.3344 222.757 32.6861 219.947 32.6861H205.278V47.8417Z" fill="white"/>
<path d="M305.428 9.42581H276.494V23.852H298.134V32.6861H276.494V47.8417H305.428V57H265.553V0.267578H305.428V9.42581Z" fill="white"/>
<path d="M328.396 0.267578H374.349V9.42581H356.843V57H345.902V9.42581H328.396V0.267578Z" fill="white"/>
<g filter="url(#filter0_f_264_341)">
<path d="M25.6643 113.732C31.7158 113.732 36.9567 112.544 41.3873 110.166C45.8718 107.843 49.3568 104.547 51.8422 100.279C54.3277 96.0103 55.5704 90.9854 55.5704 85.2041C55.5704 79.4769 54.3277 74.506 51.8422 70.2916C49.3568 66.0772 45.8718 62.8084 41.3873 60.485C36.9567 58.1617 31.7158 57 25.6643 57H4.51123V113.732H25.6643ZM25.3401 66.1583C31.4456 66.1583 36.1463 67.8332 39.4422 71.1831C42.738 74.5871 44.386 79.2607 44.386 85.2041C44.386 91.2016 42.738 95.9293 39.4422 99.3872C36.1463 102.845 31.4456 104.574 25.3401 104.574H15.4525V66.1583H25.3401Z" fill="url(#paint0_linear_264_341)"/>
<path d="M80.0805 113.732H91.0218V57H80.0805V113.732Z" fill="url(#paint1_linear_264_341)"/>
<path d="M144.227 104.574H141.31L124.614 57H113.349L133.691 113.732H151.765L172.107 57H160.842L144.227 104.574ZM125.668 79.2067H158.735V70.0485H125.668V79.2067Z" fill="url(#paint2_linear_264_341)"/>
<path d="M227.809 97.3611C227.809 99.7384 227.052 101.521 225.54 102.71C224.027 103.953 221.892 104.574 219.137 104.574H205.278V90.229H219.056C221.811 90.229 223.946 90.8233 225.459 92.012C227.025 93.2547 227.809 95.0378 227.809 97.3611ZM194.337 57V113.732H220.677C224.621 113.732 227.944 113.057 230.645 111.706C233.347 110.41 235.373 108.627 236.724 106.357C238.129 104.142 238.831 101.63 238.831 98.8199C238.831 96.3345 238.372 94.2273 237.453 92.4983C236.535 90.7693 235.265 89.3915 233.644 88.3649C232.077 87.3924 230.267 86.717 228.214 86.3388V85.6904C230.7 85.3662 232.834 84.6638 234.617 83.5832C236.4 82.5566 237.778 81.0978 238.75 79.2067C239.723 77.3156 240.209 75.0193 240.209 72.3178C240.209 69.3461 239.48 66.6986 238.021 64.3753C236.562 62.106 234.428 60.2959 231.618 58.9451C228.862 57.6484 225.54 57 221.649 57H194.337ZM205.278 66.1583H220.191C223.054 66.1583 225.269 66.7796 226.836 68.0223C228.457 69.3191 229.268 71.1831 229.268 73.6145C229.268 76.154 228.403 78.0721 226.674 79.3688C224.999 80.6656 222.757 81.3139 219.947 81.3139H205.278V66.1583Z" fill="url(#paint3_linear_264_341)"/>
<path d="M305.428 104.574H276.494V90.148H298.134V81.3139H276.494V66.1583H305.428V57H265.553V113.732H305.428V104.574Z" fill="url(#paint4_linear_264_341)"/>
<path d="M328.396 113.732H374.349V104.574H356.843V57H345.902V104.574H328.396V113.732Z" fill="url(#paint5_linear_264_341)"/>
</g>
<defs>
<filter id="filter0_f_264_341" x="0.51123" y="53" width="377.838" height="64.7324" filterUnits="userSpaceOnUse" color-interpolation-filters="sRGB">
<feFlood flood-opacity="0" result="BackgroundImageFix"/>
<feBlend mode="normal" in="SourceGraphic" in2="BackgroundImageFix" result="shape"/>
<feGaussianBlur stdDeviation="2" result="effect1_foregroundBlur_264_341"/>
</filter>
<linearGradient id="paint0_linear_264_341" x1="188.5" y1="134" x2="188.5" y2="37" gradientUnits="userSpaceOnUse">
<stop offset="0.411458" stop-color="#63FFFC" stop-opacity="0"/>
<stop offset="1" stop-color="#63B0FF"/>
</linearGradient>
<linearGradient id="paint1_linear_264_341" x1="188.5" y1="134" x2="188.5" y2="37" gradientUnits="userSpaceOnUse">
<stop offset="0.411458" stop-color="#63FFFC" stop-opacity="0"/>
<stop offset="1" stop-color="#63B0FF"/>
</linearGradient>
<linearGradient id="paint2_linear_264_341" x1="188.5" y1="134" x2="188.5" y2="37" gradientUnits="userSpaceOnUse">
<stop offset="0.411458" stop-color="#63FFFC" stop-opacity="0"/>
<stop offset="1" stop-color="#63B0FF"/>
</linearGradient>
<linearGradient id="paint3_linear_264_341" x1="188.5" y1="134" x2="188.5" y2="37" gradientUnits="userSpaceOnUse">
<stop offset="0.411458" stop-color="#63FFFC" stop-opacity="0"/>
<stop offset="1" stop-color="#63B0FF"/>
</linearGradient>
<linearGradient id="paint4_linear_264_341" x1="188.5" y1="134" x2="188.5" y2="37" gradientUnits="userSpaceOnUse">
<stop offset="0.411458" stop-color="#63FFFC" stop-opacity="0"/>
<stop offset="1" stop-color="#63B0FF"/>
</linearGradient>
<linearGradient id="paint5_linear_264_341" x1="188.5" y1="134" x2="188.5" y2="37" gradientUnits="userSpaceOnUse">
<stop offset="0.411458" stop-color="#63FFFC" stop-opacity="0"/>
<stop offset="1" stop-color="#63B0FF"/>
</linearGradient>
</defs>
</svg>
