<svg width="378" height="119" viewBox="0 0 378 119" fill="none" xmlns="http://www.w3.org/2000/svg">
<path d="M25.1531 0.767578C31.2045 0.767578 36.4455 1.95626 40.876 4.33362C45.3606 6.65694 48.8456 9.95282 51.331 14.2213C53.8164 18.4897 55.0591 23.5146 55.0591 29.2959C55.0591 35.0231 53.8164 39.994 51.331 44.2084C48.8456 48.4228 45.3606 51.6916 40.876 54.015C36.4455 56.3383 31.2045 57.5 25.1531 57.5H4V0.767578H25.1531ZM24.8289 48.3417C30.9344 48.3417 35.6351 46.6668 38.9309 43.3169C42.2268 39.9129 43.8748 35.2393 43.8748 29.2959C43.8748 23.2984 42.2268 18.5707 38.9309 15.1128C35.6351 11.6548 30.9344 9.92581 24.8289 9.92581H14.9412V48.3417H24.8289Z" fill="white"/>
<path d="M79.5693 0.767578H90.5106V57.5H79.5693V0.767578Z" fill="white"/>
<path d="M143.716 9.92581H140.798L124.103 57.5H112.838L133.18 0.767578H151.253L171.596 57.5H160.331L143.716 9.92581ZM125.157 35.2933H158.223V44.4515H125.157V35.2933Z" fill="white"/>
<path d="M227.298 17.1389C227.298 14.7616 226.541 12.9785 225.028 11.7899C223.515 10.5472 221.381 9.92581 218.626 9.92581H204.767V24.271H218.545C221.3 24.271 223.434 23.6767 224.947 22.488C226.514 21.2453 227.298 19.4623 227.298 17.1389ZM193.826 57.5V0.767578H220.166C224.11 0.767578 227.433 1.44296 230.134 2.79374C232.836 4.09048 234.862 5.87349 236.213 8.14279C237.618 10.3581 238.32 12.8705 238.32 15.6801C238.32 18.1655 237.861 20.2727 236.942 22.0017C236.024 23.7307 234.754 25.1085 233.133 26.1351C231.566 27.1076 229.756 27.783 227.703 28.1612V28.8096C230.188 29.1338 232.323 29.8362 234.106 30.9168C235.889 31.9434 237.266 33.4022 238.239 35.2933C239.211 37.1844 239.698 39.4807 239.698 42.1822C239.698 45.1539 238.968 47.8014 237.509 50.1247C236.051 52.394 233.916 54.2041 231.107 55.5549C228.351 56.8516 225.028 57.5 221.138 57.5H193.826ZM204.767 48.3417H219.679C222.543 48.3417 224.758 47.7204 226.325 46.4777C227.946 45.1809 228.756 43.3169 228.756 40.8855C228.756 38.346 227.892 36.4279 226.163 35.1312C224.488 33.8345 222.246 33.1861 219.436 33.1861H204.767V48.3417Z" fill="white"/>
<path d="M304.917 9.92581H275.983V24.352H297.622V33.1861H275.983V48.3417H304.917V57.5H265.042V0.767578H304.917V9.92581Z" fill="white"/>
<path d="M327.885 0.767578H373.838V9.92581H356.332V57.5H345.391V9.92581H327.885V0.767578Z" fill="white"/>
<g filter="url(#filter0_f_264_341)">
<path d="M25.1531 114.232C31.2045 114.232 36.4455 113.044 40.876 110.666C45.3606 108.343 48.8456 105.047 51.331 100.779C53.8164 96.5103 55.0591 91.4854 55.0591 85.7041C55.0591 79.9769 53.8164 75.006 51.331 70.7916C48.8456 66.5772 45.3606 63.3084 40.876 60.985C36.4455 58.6617 31.2045 57.5 25.1531 57.5H4V114.232H25.1531ZM24.8289 66.6583C30.9344 66.6583 35.6351 68.3332 38.9309 71.6831C42.2268 75.0871 43.8748 79.7607 43.8748 85.7041C43.8748 91.7016 42.2268 96.4293 38.9309 99.8872C35.6351 103.345 30.9344 105.074 24.8289 105.074H14.9412V66.6583H24.8289Z" fill="url(#paint0_linear_264_341)"/>
<path d="M79.5693 114.232H90.5106V57.5H79.5693V114.232Z" fill="url(#paint1_linear_264_341)"/>
<path d="M143.716 105.074H140.798L124.103 57.5H112.838L133.18 114.232H151.253L171.596 57.5H160.331L143.716 105.074ZM125.157 79.7067H158.223V70.5485H125.157V79.7067Z" fill="url(#paint2_linear_264_341)"/>
<path d="M227.298 97.8611C227.298 100.238 226.541 102.021 225.028 103.21C223.515 104.453 221.381 105.074 218.626 105.074H204.767V90.729H218.545C221.3 90.729 223.434 91.3233 224.947 92.512C226.514 93.7547 227.298 95.5377 227.298 97.8611ZM193.826 57.5V114.232H220.166C224.11 114.232 227.433 113.557 230.134 112.206C232.836 110.91 234.862 109.127 236.213 106.857C237.618 104.642 238.32 102.13 238.32 99.3199C238.32 96.8345 237.861 94.7273 236.942 92.9983C236.024 91.2693 234.754 89.8915 233.133 88.8649C231.566 87.8924 229.756 87.217 227.703 86.8388V86.1904C230.188 85.8662 232.323 85.1638 234.106 84.0832C235.889 83.0566 237.266 81.5978 238.239 79.7067C239.211 77.8156 239.698 75.5193 239.698 72.8178C239.698 69.8461 238.968 67.1986 237.509 64.8753C236.051 62.606 233.916 60.7959 231.107 59.4451C228.351 58.1484 225.028 57.5 221.138 57.5H193.826ZM204.767 66.6583H219.679C222.543 66.6583 224.758 67.2796 226.325 68.5223C227.946 69.8191 228.756 71.6831 228.756 74.1145C228.756 76.654 227.892 78.5721 226.163 79.8688C224.488 81.1655 222.246 81.8139 219.436 81.8139H204.767V66.6583Z" fill="url(#paint3_linear_264_341)"/>
<path d="M304.917 105.074H275.983V90.648H297.622V81.8139H275.983V66.6583H304.917V57.5H265.042V114.232H304.917V105.074Z" fill="url(#paint4_linear_264_341)"/>
<path d="M327.885 114.232H373.838V105.074H356.332V57.5H345.391V105.074H327.885V114.232Z" fill="url(#paint5_linear_264_341)"/>
</g>
<defs>
<filter id="filter0_f_264_341" x="0" y="53.5" width="377.838" height="64.7324" filterUnits="userSpaceOnUse" color-interpolation-filters="sRGB">
<feFlood flood-opacity="0" result="BackgroundImageFix"/>
<feBlend mode="normal" in="SourceGraphic" in2="BackgroundImageFix" result="shape"/>
<feGaussianBlur stdDeviation="2" result="effect1_foregroundBlur_264_341"/>
</filter>
<linearGradient id="paint0_linear_264_341" x1="187.989" y1="134.5" x2="187.989" y2="37.5" gradientUnits="userSpaceOnUse">
<stop offset="0.411458" stop-color="#63FFFC" stop-opacity="0"/>
<stop offset="1" stop-color="#63B0FF"/>
</linearGradient>
<linearGradient id="paint1_linear_264_341" x1="187.989" y1="134.5" x2="187.989" y2="37.5" gradientUnits="userSpaceOnUse">
<stop offset="0.411458" stop-color="#63FFFC" stop-opacity="0"/>
<stop offset="1" stop-color="#63B0FF"/>
</linearGradient>
<linearGradient id="paint2_linear_264_341" x1="187.989" y1="134.5" x2="187.989" y2="37.5" gradientUnits="userSpaceOnUse">
<stop offset="0.411458" stop-color="#63FFFC" stop-opacity="0"/>
<stop offset="1" stop-color="#63B0FF"/>
</linearGradient>
<linearGradient id="paint3_linear_264_341" x1="187.989" y1="134.5" x2="187.989" y2="37.5" gradientUnits="userSpaceOnUse">
<stop offset="0.411458" stop-color="#63FFFC" stop-opacity="0"/>
<stop offset="1" stop-color="#63B0FF"/>
</linearGradient>
<linearGradient id="paint4_linear_264_341" x1="187.989" y1="134.5" x2="187.989" y2="37.5" gradientUnits="userSpaceOnUse">
<stop offset="0.411458" stop-color="#63FFFC" stop-opacity="0"/>
<stop offset="1" stop-color="#63B0FF"/>
</linearGradient>
<linearGradient id="paint5_linear_264_341" x1="187.989" y1="134.5" x2="187.989" y2="37.5" gradientUnits="userSpaceOnUse">
<stop offset="0.411458" stop-color="#63FFFC" stop-opacity="0"/>
<stop offset="1" stop-color="#63B0FF"/>
</linearGradient>
</defs>
</svg>
