<svg width="452" height="58" viewBox="0 0 452 58" fill="none" xmlns="http://www.w3.org/2000/svg">
<path d="M21.6642 0.773499C27.7157 0.773499 32.9567 1.96217 37.3872 4.33953C41.8718 6.66286 45.3567 9.95874 47.8422 14.2272C50.3276 18.4956 51.5703 23.5205 51.5703 29.3018C51.5703 35.029 50.3276 39.9999 47.8422 44.2143C45.3567 48.4287 41.8718 51.6975 37.3872 54.0209C32.9567 56.3442 27.7157 57.5059 21.6642 57.5059H0.511108V0.773499H21.6642ZM21.34 48.3476C27.4455 48.3476 32.1462 46.6727 35.4421 43.3228C38.738 39.9188 40.3859 35.2452 40.3859 29.3018C40.3859 23.3043 38.738 18.5766 35.4421 15.1187C32.1462 11.6607 27.4455 9.93173 21.34 9.93173H11.4524V48.3476H21.34ZM92.2897 0.773499H103.231V57.5059H92.2897V0.773499ZM172.646 9.93173H169.728L153.033 57.5059H141.767L162.11 0.773499H180.183L200.526 57.5059H189.26L172.646 9.93173ZM154.086 35.2992H187.153V44.4574H154.086V35.2992ZM272.516 17.1448C272.516 14.7675 271.759 12.9844 270.246 11.7958C268.734 10.5531 266.599 9.93173 263.844 9.93173H249.985V24.2769H263.763C266.518 24.2769 268.652 23.6826 270.165 22.4939C271.732 21.2512 272.516 19.4681 272.516 17.1448ZM239.044 57.5059V0.773499H265.384C269.328 0.773499 272.651 1.44888 275.352 2.79965C278.054 4.09639 280.08 5.87941 281.431 8.14871C282.836 10.364 283.538 12.8764 283.538 15.686C283.538 18.1714 283.079 20.2786 282.16 22.0076C281.242 23.7366 279.972 25.1144 278.351 26.141C276.784 27.1135 274.974 27.7889 272.921 28.1671V28.8155C275.406 29.1397 277.541 29.8421 279.324 30.9227C281.107 31.9493 282.484 33.4081 283.457 35.2992C284.429 37.1903 284.916 39.4866 284.916 42.1881C284.916 45.1598 284.186 47.8073 282.728 50.1306C281.269 52.3999 279.134 54.21 276.325 55.5607C273.569 56.8575 270.246 57.5059 266.356 57.5059H239.044ZM249.985 48.3476H264.897C267.761 48.3476 269.976 47.7263 271.543 46.4836C273.164 45.1868 273.975 43.3228 273.975 40.8914C273.975 38.3519 273.11 36.4338 271.381 35.1371C269.706 33.8404 267.464 33.192 264.654 33.192H249.985V48.3476ZM366.344 9.93173H337.41V24.3579H359.05V33.192H337.41V48.3476H366.344V57.5059H326.469V0.773499H366.344V9.93173ZM405.44 0.773499H451.475V9.93173H433.969V57.5059H423.027V9.93173H405.44V0.773499Z" fill="white"/>
</svg>
